<?xml version="1.0" encoding="UTF-8"?>
<!DOCTYPE svg PUBLIC "-//W3C//DTD SVG 1.1//EN" "http://www.w3.org/Graphics/SVG/1.1/DTD/svg11.dtd">
<svg xmlns="http://www.w3.org/2000/svg" version="1.1" width="800px" height="800px" style="shape-rendering:geometricPrecision; text-rendering:geometricPrecision; image-rendering:optimizeQuality; fill-rule:evenodd; clip-rule:evenodd" xmlns:xlink="http://www.w3.org/1999/xlink">
<g><path style="opacity:1" fill="#c5e2fe" d="M -0.5,-0.5 C 266.167,-0.5 532.833,-0.5 799.5,-0.5C 799.5,266.167 799.5,532.833 799.5,799.5C 532.833,799.5 266.167,799.5 -0.5,799.5C -0.5,532.833 -0.5,266.167 -0.5,-0.5 Z"/></g>
<g><path style="opacity:1" fill="#000000" d="M 185.5,151.5 C 328.167,151.333 470.834,151.5 613.5,152C 622.237,154.404 628.071,159.904 631,168.5C 631.667,284.5 631.667,400.5 631,516.5C 628.833,526.667 622.667,532.833 612.5,535C 625.223,535.079 637.889,535.746 650.5,537C 675.857,547.217 684.357,565.383 676,591.5C 669.55,605.316 658.717,613.149 643.5,615C 479.833,615.667 316.167,615.667 152.5,615C 135.482,610.983 124.649,600.483 120,583.5C 117.703,559.138 128.203,543.305 151.5,536C 162.5,535.667 173.5,535.333 184.5,535C 175.904,532.071 170.404,526.237 168,517.5C 167.333,401.5 167.333,285.5 168,169.5C 170.683,160.318 176.517,154.318 185.5,151.5 Z"/></g>
<g><path style="opacity:1" fill="#c5e2fe" d="M 215.5,199.5 C 338.167,199.5 460.833,199.5 583.5,199.5C 583.5,295.5 583.5,391.5 583.5,487.5C 460.833,487.5 338.167,487.5 215.5,487.5C 215.5,391.5 215.5,295.5 215.5,199.5 Z"/></g>
<g><path style="opacity:1" fill="#010101" d="M 236.5,231.5 C 278.168,231.333 319.835,231.5 361.5,232C 367.649,234.552 368.982,238.718 365.5,244.5C 364.335,245.584 363.002,246.417 361.5,247C 319.833,247.667 278.167,247.667 236.5,247C 229.875,241.754 229.875,236.587 236.5,231.5 Z"/></g>
<g><path style="opacity:1" fill="#010101" d="M 236.5,271.5 C 278.168,271.333 319.835,271.5 361.5,272C 367.649,274.552 368.982,278.718 365.5,284.5C 364.335,285.584 363.002,286.417 361.5,287C 319.833,287.667 278.167,287.667 236.5,287C 229.875,281.754 229.875,276.587 236.5,271.5 Z"/></g>
<g><path style="opacity:1" fill="#010101" d="M 316.5,311.5 C 358.168,311.333 399.835,311.5 441.5,312C 447.649,314.552 448.982,318.718 445.5,324.5C 444.335,325.584 443.002,326.417 441.5,327C 399.833,327.667 358.167,327.667 316.5,327C 309.875,321.754 309.875,316.587 316.5,311.5 Z"/></g>
<g><path style="opacity:1" fill="#010101" d="M 316.5,351.5 C 358.168,351.333 399.835,351.5 441.5,352C 447.649,354.552 448.982,358.718 445.5,364.5C 444.335,365.584 443.002,366.417 441.5,367C 399.833,367.667 358.167,367.667 316.5,367C 309.875,361.754 309.875,356.587 316.5,351.5 Z"/></g>
<g><path style="opacity:1" fill="#010101" d="M 236.5,391.5 C 278.168,391.333 319.835,391.5 361.5,392C 367.649,394.552 368.982,398.718 365.5,404.5C 364.335,405.584 363.002,406.417 361.5,407C 319.833,407.667 278.167,407.667 236.5,407C 229.875,401.754 229.875,396.587 236.5,391.5 Z"/></g>
<g><path style="opacity:1" fill="#010101" d="M 236.5,431.5 C 278.168,431.333 319.835,431.5 361.5,432C 367.649,434.552 368.982,438.718 365.5,444.5C 364.335,445.584 363.002,446.417 361.5,447C 319.833,447.667 278.167,447.667 236.5,447C 229.875,441.754 229.875,436.587 236.5,431.5 Z"/></g>
<g><path style="opacity:1" fill="#c1ddf8" d="M 594.5,495.5 C 612.077,495.562 618.244,503.895 613,520.5C 606.745,527.913 599.245,529.413 590.5,525C 583.087,518.745 581.587,511.245 586,502.5C 588.441,499.546 591.275,497.213 594.5,495.5 Z"/></g>
</svg>
