<svg xmlns="http://www.w3.org/2000/svg"
width="500" height="500" viewBox="0 0 100 100">
<rect x="0" y="0" width="100%" height="100%" fill="#c6e2ff"/>
<circle cx="24" cy="22" r="3"/>
<circle cx="76" cy="22" r="3"/>
<line x1="24" y1="22" x2="76" y2="22" stroke="#000" stroke-width="6"/>
<circle cx="76" cy="22" r="3"/>
<circle cx="76" cy="64" r="3"/>
<line x1="76" y1="22" x2="76" y2="64" stroke="#000" stroke-width="6"/>
<circle cx="76" cy="64" r="3"/>
<circle cx="24" cy="64" r="3"/>
<line x1="76" y1="64" x2="24" y2="64" stroke="#000" stroke-width="6"/>
<circle cx="24" cy="64" r="3"/>
<circle cx="24" cy="22" r="3"/>
<line x1="24" y1="64" x2="24" y2="22" stroke="#000" stroke-width="6"/>
<circle cx="20" cy="72" r="5"/>
<circle cx="80" cy="72" r="5"/>
<line x1="20" y1="72" x2="80" y2="72" stroke="#000" stroke-width="10"/>
<circle cx="30" cy="30" r="1"/>
<circle cx="45" cy="30" r="1"/>
<line x1="30" y1="30" x2="45" y2="30" stroke="#000" stroke-width="2"/>
<circle cx="30" cy="35" r="1"/>
<circle cx="45" cy="35" r="1"/>
<line x1="30" y1="35" x2="45" y2="35" stroke="#000" stroke-width="2"/>
<circle cx="40" cy="40" r="1"/>
<circle cx="55" cy="40" r="1"/>
<line x1="40" y1="40" x2="55" y2="40" stroke="#000" stroke-width="2"/>
<circle cx="40" cy="45" r="1"/>
<circle cx="55" cy="45" r="1"/>
<line x1="40" y1="45" x2="55" y2="45" stroke="#000" stroke-width="2"/>
<circle cx="30" cy="50" r="1"/>
<circle cx="45" cy="50" r="1"/>
<line x1="30" y1="50" x2="45" y2="50" stroke="#000" stroke-width="2"/>
<circle cx="30" cy="55" r="1"/>
<circle cx="45" cy="55" r="1"/>
<line x1="30" y1="55" x2="45" y2="55" stroke="#000" stroke-width="2"/>
<circle cx="75" cy="64" r="2" fill="#c6e2ff"/>
</svg>