<?xml version="1.0" encoding="UTF-8"?>
<!DOCTYPE svg PUBLIC "-//W3C//DTD SVG 1.1//EN" "http://www.w3.org/Graphics/SVG/1.1/DTD/svg11.dtd">
<svg xmlns="http://www.w3.org/2000/svg" version="1.1" width="800px" height="800px" style="shape-rendering:geometricPrecision; text-rendering:geometricPrecision; image-rendering:optimizeQuality; fill-rule:evenodd; clip-rule:evenodd" xmlns:xlink="http://www.w3.org/1999/xlink">
<g><path style="opacity:1" fill="#c5fec5" d="M -0.5,-0.5 C 266.167,-0.5 532.833,-0.5 799.5,-0.5C 799.5,266.167 799.5,532.833 799.5,799.5C 532.833,799.5 266.167,799.5 -0.5,799.5C -0.5,532.833 -0.5,266.167 -0.5,-0.5 Z"/></g>
<g><path style="opacity:1" fill="#000000" d="M 185.5,167.5 C 328.167,167.333 470.834,167.5 613.5,168C 622.237,170.404 628.071,175.904 631,184.5C 631.667,327.167 631.667,469.833 631,612.5C 628.833,622.667 622.667,628.833 612.5,631C 469.833,631.667 327.167,631.667 184.5,631C 175.904,628.071 170.404,622.237 168,613.5C 167.333,470.833 167.333,328.167 168,185.5C 170.683,176.318 176.517,170.318 185.5,167.5 Z"/></g>
<g><path style="opacity:1" fill="#c5fec5" d="M 215.5,215.5 C 338.167,215.5 460.833,215.5 583.5,215.5C 583.5,338.167 583.5,460.833 583.5,583.5C 460.833,583.5 338.167,583.5 215.5,583.5C 215.5,460.833 215.5,338.167 215.5,215.5 Z"/></g>
<g><path style="opacity:1" fill="#000100" d="M 336.5,247.5 C 341.023,247.18 344.523,248.846 347,252.5C 347.5,278.831 347.667,305.165 347.5,331.5C 382.167,331.5 416.833,331.5 451.5,331.5C 451.333,305.165 451.5,278.831 452,252.5C 455.514,246.931 460.014,246.098 465.5,250C 466.126,250.75 466.626,251.584 467,252.5C 467.5,278.831 467.667,305.165 467.5,331.5C 493.502,331.333 519.502,331.5 545.5,332C 551.649,334.552 552.982,338.718 549.5,344.5C 548.335,345.584 547.002,346.417 545.5,347C 519.502,347.5 493.502,347.667 467.5,347.5C 467.5,382.167 467.5,416.833 467.5,451.5C 493.502,451.333 519.502,451.5 545.5,452C 551.649,454.552 552.982,458.718 549.5,464.5C 548.335,465.584 547.002,466.417 545.5,467C 519.502,467.5 493.502,467.667 467.5,467.5C 467.667,493.502 467.5,519.502 467,545.5C 464.305,551.098 460.138,552.598 454.5,550C 453.54,548.581 452.707,547.081 452,545.5C 451.5,519.502 451.333,493.502 451.5,467.5C 416.833,467.5 382.167,467.5 347.5,467.5C 347.667,493.502 347.5,519.502 347,545.5C 344.305,551.098 340.138,552.598 334.5,550C 333.54,548.581 332.707,547.081 332,545.5C 331.5,519.502 331.333,493.502 331.5,467.5C 305.165,467.667 278.831,467.5 252.5,467C 247.688,463.87 246.521,459.704 249,454.5C 249.903,453.299 251.069,452.465 252.5,452C 278.831,451.5 305.165,451.333 331.5,451.5C 331.5,416.833 331.5,382.167 331.5,347.5C 305.165,347.667 278.831,347.5 252.5,347C 247.688,343.87 246.521,339.704 249,334.5C 249.903,333.299 251.069,332.465 252.5,332C 278.831,331.5 305.165,331.333 331.5,331.5C 331.333,305.165 331.5,278.831 332,252.5C 333.025,250.313 334.525,248.646 336.5,247.5 Z"/></g>
<g><path style="opacity:1" fill="#c3fcc3" d="M 347.5,347.5 C 382.167,347.5 416.833,347.5 451.5,347.5C 451.5,382.167 451.5,416.833 451.5,451.5C 416.833,451.5 382.167,451.5 347.5,451.5C 347.5,416.833 347.5,382.167 347.5,347.5 Z"/></g>
<g><path style="opacity:1" fill="#050605" d="M 392.5,355.5 C 418.29,354.463 435.124,366.13 443,390.5C 444.167,426.667 426.667,444.167 390.5,443C 365.982,435.148 354.482,418.314 356,392.5C 360.347,372.32 372.514,359.987 392.5,355.5 Z"/></g>
<g><path style="opacity:1" fill="#080a07" d="M 244.5,359.5 C 247.794,359.259 250.794,360.092 253.5,362C 262.014,370.681 270.681,379.181 279.5,387.5C 288.652,378.848 297.652,370.014 306.5,361C 310.628,358.89 314.461,359.39 318,362.5C 320.037,366.334 319.704,370.001 317,373.5C 308.319,382.014 299.819,390.681 291.5,399.5C 300.152,408.652 308.986,417.652 318,426.5C 320.833,437 317,440.833 306.5,438C 297.652,428.986 288.652,420.152 279.5,411.5C 270.348,420.152 261.348,428.986 252.5,438C 242.135,440.789 238.302,436.956 241,426.5C 250.014,417.652 258.848,408.652 267.5,399.5C 259.181,390.681 250.681,382.014 242,373.5C 238.161,367.87 238.994,363.203 244.5,359.5 Z"/></g>
<g><path style="opacity:1" fill="#c3fbc3" d="M 392.5,371.5 C 409.251,369.956 420.751,376.956 427,392.5C 428.167,416.667 416.667,428.167 392.5,427C 376.801,420.769 369.968,409.269 372,392.5C 375.685,382.316 382.519,375.316 392.5,371.5 Z"/></g>
<g><path style="opacity:1" fill="#c1f8c1" d="M 594.5,583.5 C 612.077,583.562 618.244,591.895 613,608.5C 606.745,615.913 599.245,617.413 590.5,613C 583.087,606.745 581.587,599.245 586,590.5C 588.441,587.546 591.275,585.213 594.5,583.5 Z"/></g>
</svg>
