<svg xmlns="http://www.w3.org/2000/svg"
width="512" height="512" viewBox="0 0 100 100">
<rect x="0" y="0" width="100%" height="100%" fill="#c6ffc6"/>
<circle cx="24" cy="24" r="3"/>
<circle cx="76" cy="24" r="3"/>
<line x1="24" y1="24" x2="76" y2="24" stroke="#000" stroke-width="6"/>
<circle cx="76" cy="24" r="3"/>
<circle cx="76" cy="76" r="3"/>
<line x1="76" y1="24" x2="76" y2="76" stroke="#000" stroke-width="6"/>
<circle cx="76" cy="76" r="3"/>
<circle cx="24" cy="76" r="3"/>
<line x1="76" y1="76" x2="24" y2="76" stroke="#000" stroke-width="6"/>
<circle cx="24" cy="76" r="3"/>
<circle cx="24" cy="24" r="3"/>
<line x1="24" y1="76" x2="24" y2="24" stroke="#000" stroke-width="6"/>
<circle cx="32" cy="42.50" r="1"/>
<circle cx="68" cy="42.50" r="1"/>
<line x1="32" y1="42.50" x2="68" y2="42.50" stroke="#000" stroke-width="2"/>
<circle cx="32" cy="57.50" r="1"/>
<circle cx="68" cy="57.50" r="1"/>
<line x1="32" y1="57.50" x2="68" y2="57.50" stroke="#000" stroke-width="2"/>
<circle cx="42.50" cy="32" r="1"/>
<circle cx="42.50" cy="68" r="1"/>
<line x1="42.50" y1="32" x2="42.50" y2="68" stroke="#000" stroke-width="2"/>
<circle cx="57.50" cy="32" r="1"/>
<circle cx="57.50" cy="68" r="1"/>
<line x1="57.50" y1="32" x2="57.50" y2="68" stroke="#000" stroke-width="2"/>
<circle cx="39" cy="54" r="1"/>
<circle cx="31" cy="46" r="1"/>
<line x1="39" y1="54" x2="31" y2="46" stroke="#000" stroke-width="2"/>
<circle cx="39" cy="46" r="1"/>
<circle cx="31" cy="54" r="1"/>
<line x1="39" y1="46" x2="31" y2="54" stroke="#000" stroke-width="2"/>
<circle cx="50" cy="50" r="5.50" fill="#000"/>
<circle cx="50" cy="50" r="3.50" fill="#c6ffc6"/>
<circle cx="75" cy="75" r="2" fill="#c6ffc6"/>
</svg>